<?xml version="1.0" encoding="UTF-8"?><svg id="Layer_1" xmlns="http://www.w3.org/2000/svg" viewBox="0 0 26 26"><defs><style>.cls-1{fill:#a21702;stroke-width:0px;}</style></defs><path class="cls-1" d="M13,0C5.82,0,0,5.82,0,13s5.82,13,13,13,13-5.82,13-13S20.18,0,13,0ZM9.26,18.38c-.21,0-.41-.08-.57-.24-.31-.31-.31-.82,0-1.13l3.19-3.19c.22-.22.34-.51.34-.82s-.12-.6-.34-.82l-3.19-3.19c-.31-.31-.31-.82,0-1.13.31-.31.82-.31,1.14,0l4.58,4.58c.15.15.24.35.24.57s-.08.42-.24.57l-1.39,1.39-3.19,3.19c-.16.16-.36.24-.57.24ZM18.86,13.57l-1.39,1.39-3.19,3.19c-.16.16-.36.24-.57.24s-.41-.08-.57-.24c-.31-.31-.31-.82,0-1.13l3.19-3.19c.22-.22.34-.51.34-.82s-.12-.6-.34-.82l-3.19-3.19c-.31-.31-.31-.82,0-1.13s.82-.31,1.14,0l4.58,4.58c.15.15.24.35.24.57s-.08.42-.24.57Z"/></svg>